{
    "asset" : {
        "generator" : "Khronos glTF Blender I/O v1.5.17",
        "version" : "2.0"
    },
    "scene" : 0,
    "scenes" : [
        {
            "name" : "Scene",
            "nodes" : [
                0
            ]
        }
    ],
    "nodes" : [
        {
            "mesh" : 0,
            "name" : "Curve.002",
            "rotation" : [
                0.7071068286895752,
                0,
                0,
                0.7071068286895752
            ],
            "scale" : [
                13.295151710510254,
                13.295151710510254,
                13.295151710510254
            ],
            "translation" : [
                -1.521562099456787,
                -1.5417852401733398,
                0
            ]
        }
    ],
    "materials" : [
        {
            "doubleSided" : true,
            "name" : "Twitch Purple",
            "pbrMetallicRoughness" : {
                "baseColorFactor" : [
                    0.283148854970932,
                    0.061246030032634735,
                    1,
                    1
                ],
                "metallicFactor" : 0,
                "roughnessFactor" : 0.5
            }
        },
        {
            "doubleSided" : true,
            "name" : "White.001",
            "pbrMetallicRoughness" : {
                "metallicFactor" : 0,
                "roughnessFactor" : 0.5
            }
        },
        {
            "doubleSided" : true,
            "emissiveFactor" : [
                1,
                0,
                0
            ],
            "name" : "Rec Icon",
            "pbrMetallicRoughness" : {}
        }
    ],
    "meshes" : [
        {
            "name" : "Curve.002",
            "primitives" : [
                {
                    "attributes" : {
                        "POSITION" : 0,
                        "NORMAL" : 1,
                        "TEXCOORD_0" : 2
                    },
                    "indices" : 3,
                    "material" : 0
                },
                {
                    "attributes" : {
                        "POSITION" : 4,
                        "NORMAL" : 5,
                        "TEXCOORD_0" : 6
                    },
                    "indices" : 7,
                    "material" : 1
                },
                {
                    "attributes" : {
                        "POSITION" : 8,
                        "NORMAL" : 9,
                        "TEXCOORD_0" : 10
                    },
                    "indices" : 11,
                    "material" : 2
                }
            ]
        }
    ],
    "accessors" : [
        {
            "bufferView" : 0,
            "componentType" : 5126,
            "count" : 248,
            "max" : [
                0.21246404945850372,
                0.031827837228775024,
                7.450580596923828e-09
            ],
            "min" : [
                0.03700008988380432,
                0,
                -0.20466801524162292
            ],
            "type" : "VEC3"
        },
        {
            "bufferView" : 1,
            "componentType" : 5126,
            "count" : 248,
            "type" : "VEC3"
        },
        {
            "bufferView" : 2,
            "componentType" : 5126,
            "count" : 248,
            "type" : "VEC2"
        },
        {
            "bufferView" : 3,
            "componentType" : 5123,
            "count" : 426,
            "type" : "SCALAR"
        },
        {
            "bufferView" : 4,
            "componentType" : 5126,
            "count" : 52,
            "max" : [
                0.1978418231010437,
                0.02203698456287384,
                -0.05482251197099686
            ],
            "min" : [
                0.08086678385734558,
                0,
                -0.19004887342453003
            ],
            "type" : "VEC3"
        },
        {
            "bufferView" : 5,
            "componentType" : 5126,
            "count" : 52,
            "type" : "VEC3"
        },
        {
            "bufferView" : 6,
            "componentType" : 5126,
            "count" : 52,
            "type" : "VEC2"
        },
        {
            "bufferView" : 7,
            "componentType" : 5123,
            "count" : 84,
            "type" : "SCALAR"
        },
        {
            "bufferView" : 8,
            "componentType" : 5126,
            "count" : 518,
            "max" : [
                0.12107580900192261,
                0.043027911335229874,
                -0.11392831057310104
            ],
            "min" : [
                0,
                0,
                -0.2349785566329956
            ],
            "type" : "VEC3"
        },
        {
            "bufferView" : 9,
            "componentType" : 5126,
            "count" : 518,
            "type" : "VEC3"
        },
        {
            "bufferView" : 10,
            "componentType" : 5126,
            "count" : 518,
            "type" : "VEC2"
        },
        {
            "bufferView" : 11,
            "componentType" : 5123,
            "count" : 852,
            "type" : "SCALAR"
        }
    ],
    "bufferViews" : [
        {
            "buffer" : 0,
            "byteLength" : 2976,
            "byteOffset" : 0
        },
        {
            "buffer" : 0,
            "byteLength" : 2976,
            "byteOffset" : 2976
        },
        {
            "buffer" : 0,
            "byteLength" : 1984,
            "byteOffset" : 5952
        },
        {
            "buffer" : 0,
            "byteLength" : 852,
            "byteOffset" : 7936
        },
        {
            "buffer" : 0,
            "byteLength" : 624,
            "byteOffset" : 8788
        },
        {
            "buffer" : 0,
            "byteLength" : 624,
            "byteOffset" : 9412
        },
        {
            "buffer" : 0,
            "byteLength" : 416,
            "byteOffset" : 10036
        },
        {
            "buffer" : 0,
            "byteLength" : 168,
            "byteOffset" : 10452
        },
        {
            "buffer" : 0,
            "byteLength" : 6216,
            "byteOffset" : 10620
        },
        {
            "buffer" : 0,
            "byteLength" : 6216,
            "byteOffset" : 16836
        },
        {
            "buffer" : 0,
            "byteLength" : 4144,
            "byteOffset" : 23052
        },
        {
            "buffer" : 0,
            "byteLength" : 1704,
            "byteOffset" : 27196
        }
    ],
    "buffers" : [
        {
            "byteLength" : 28900,
            "uri" : "data:application/octet-stream;base64,"
        }
    ]
}
